<svg xmlns="http://www.w3.org/2000/svg" xmlns:xlink="http://www.w3.org/1999/xlink" width="500" zoomAndPan="magnify" viewBox="0 0 375 374.999991" height="500" preserveAspectRatio="xMidYMid meet" version="1.0"><defs><g/><clipPath id="55092abd95"><path d="M 132 26.203125 L 252 26.203125 L 252 157 L 132 157 Z M 132 26.203125 " clip-rule="nonzero"/></clipPath><clipPath id="5be9109d3d"><path d="M 88.96875 224 L 294.324219 224 L 294.324219 264.28125 L 88.96875 264.28125 Z M 88.96875 224 " clip-rule="nonzero"/></clipPath><clipPath id="68dffd3eaa"><path d="M 98 50.21875 L 153.648438 50.21875 L 153.648438 202 L 98 202 Z M 98 50.21875 " clip-rule="nonzero"/></clipPath><clipPath id="77a98d4869"><path d="M 80.492188 205 L 136 205 L 136 274.183594 L 80.492188 274.183594 Z M 80.492188 205 " clip-rule="nonzero"/></clipPath></defs><rect x="-37.5" width="450" fill="#ffffff" y="-37.499999" height="449.999989" fill-opacity="1"/><rect x="-37.5" width="450" fill="#ffffff" y="-37.499999" height="449.999989" fill-opacity="1"/><rect x="-37.5" width="450" fill="#000000" y="-37.499999" height="449.999989" fill-opacity="1"/><path fill="#3537ef" d="M 224.722656 169.867188 C 224.722656 168.410156 223.535156 167.214844 222.074219 167.214844 C 220.617188 167.214844 219.425781 168.40625 219.425781 169.867188 L 219.425781 194.179688 C 215.972656 193.703125 212.597656 193.304688 209.390625 192.984375 L 209.390625 165.40625 C 209.390625 163.949219 208.203125 162.753906 206.742188 162.753906 C 205.285156 162.753906 204.09375 163.945312 204.09375 165.40625 L 204.09375 192.511719 C 200.398438 192.222656 197.007812 192.054688 194.058594 191.992188 L 194.058594 160.9375 C 194.058594 159.558594 192.992188 158.417969 191.640625 158.296875 C 190.292969 158.410156 189.222656 159.558594 189.222656 160.9375 L 189.222656 191.992188 C 186.273438 192.054688 182.882812 192.222656 179.191406 192.511719 L 179.191406 165.40625 C 179.191406 163.949219 178 162.753906 176.539062 162.753906 C 175.085938 162.753906 173.890625 163.945312 173.890625 165.40625 L 173.890625 192.984375 C 170.683594 193.304688 167.3125 193.703125 163.859375 194.179688 L 163.859375 169.867188 C 163.859375 168.410156 162.667969 167.214844 161.207031 167.214844 C 159.753906 167.214844 158.558594 168.40625 158.558594 169.867188 L 158.558594 194.960938 C 155.238281 195.492188 151.875 196.09375 148.527344 196.765625 L 148.527344 174.332031 C 148.527344 172.875 147.335938 171.675781 145.882812 171.675781 C 144.425781 171.675781 143.230469 172.867188 143.230469 174.332031 L 143.230469 197.902344 C 139.8125 198.679688 136.445312 199.546875 133.199219 200.488281 L 133.199219 178.796875 C 133.199219 177.339844 132.011719 176.144531 130.550781 176.144531 C 129.09375 176.144531 127.898438 177.335938 127.898438 178.796875 L 127.898438 202.148438 C 124.273438 203.371094 120.863281 204.699219 117.78125 206.160156 L 117.78125 189.984375 C 103.535156 162.265625 168.5625 151.019531 191.632812 151.039062 C 214.703125 151.023438 279.722656 162.269531 265.480469 189.984375 L 265.480469 206.160156 C 262.398438 204.699219 258.992188 203.363281 255.363281 202.148438 L 255.363281 178.796875 C 255.363281 177.339844 254.171875 176.144531 252.714844 176.144531 C 251.257812 176.144531 250.0625 177.335938 250.0625 178.796875 L 250.0625 200.488281 C 246.816406 199.546875 243.449219 198.6875 240.03125 197.902344 L 240.03125 174.332031 C 240.03125 172.875 238.839844 171.675781 237.382812 171.675781 C 235.925781 171.675781 234.730469 172.867188 234.730469 174.332031 L 234.730469 196.765625 C 231.382812 196.09375 228.019531 195.492188 224.699219 194.960938 L 224.699219 169.867188 Z M 224.722656 169.867188 " fill-opacity="1" fill-rule="evenodd"/><g clip-path="url(#55092abd95)"><path fill="#f60e0e" d="M 251.101562 156.925781 C 234.910156 148.597656 215.097656 144.425781 191.648438 144.40625 C 168.199219 144.425781 148.382812 148.601562 132.191406 156.925781 C 139.242188 124.527344 153.449219 104.433594 174.808594 96.628906 C 174.664062 90.425781 176.566406 85.679688 180.515625 82.398438 L 180.515625 67.925781 C 178.507812 66.289062 178.507812 64.546875 180.515625 62.703125 L 180.515625 53.675781 L 188.464844 45.449219 L 188.464844 29.792969 L 191.648438 26.214844 L 194.828125 29.792969 L 194.828125 45.449219 L 202.777344 53.675781 L 202.777344 62.703125 C 204.785156 64.550781 204.785156 66.289062 202.777344 67.925781 L 202.777344 82.398438 C 206.726562 85.679688 208.628906 90.429688 208.484375 96.628906 C 229.84375 104.433594 244.050781 124.535156 251.101562 156.925781 Z M 191.648438 82.636719 C 190.792969 82.574219 190.109375 81.851562 190.109375 80.980469 L 190.109375 67.230469 C 190.109375 66.355469 190.789062 65.636719 191.648438 65.574219 C 192.5 65.636719 193.183594 66.355469 193.183594 67.230469 L 193.183594 80.980469 C 193.183594 81.851562 192.503906 82.574219 191.648438 82.636719 Z M 185.625 82.640625 C 184.710938 82.640625 183.96875 81.898438 183.96875 80.980469 L 183.96875 67.230469 C 183.96875 66.316406 184.710938 65.570312 185.625 65.570312 C 186.539062 65.570312 187.28125 66.316406 187.28125 67.230469 L 187.28125 80.980469 C 187.28125 81.898438 186.53125 82.640625 185.625 82.640625 Z M 199.324219 80.980469 C 199.324219 81.898438 198.578125 82.640625 197.667969 82.640625 C 196.753906 82.640625 196.011719 81.898438 196.011719 80.980469 L 196.011719 67.230469 C 196.011719 66.316406 196.761719 65.570312 197.667969 65.570312 C 198.582031 65.570312 199.324219 66.316406 199.324219 67.230469 Z M 199.324219 80.980469 " fill-opacity="1" fill-rule="evenodd"/></g><g clip-path="url(#5be9109d3d)"><path fill="#3537ef" d="M 231.042969 252.054688 L 150.984375 252.5625 L 192.160156 237.042969 Z M 88.96875 250.527344 L 89.226562 264.273438 L 294.324219 264.273438 L 294.324219 250.277344 L 256.457031 250.277344 L 191.140625 224.574219 L 124.550781 250.527344 Z M 88.96875 250.527344 " fill-opacity="1" fill-rule="evenodd"/></g><path fill="#f60e0e" d="M 194.523438 220.65625 L 205.421875 224.941406 L 205.421875 212.695312 C 205.421875 211.113281 206.71875 209.816406 208.296875 209.816406 C 209.878906 209.816406 211.175781 211.113281 211.175781 212.695312 L 211.175781 227.203125 L 222.074219 231.492188 L 222.074219 217.550781 C 222.074219 215.96875 223.371094 214.671875 224.949219 214.671875 C 226.53125 214.671875 227.824219 215.96875 227.824219 217.550781 L 227.824219 233.761719 L 238.726562 238.046875 L 238.726562 222.398438 C 238.726562 220.816406 240.019531 219.519531 241.601562 219.519531 C 243.183594 219.519531 244.476562 220.816406 244.476562 222.398438 L 244.476562 240.308594 L 255.378906 244.59375 L 255.378906 227.242188 C 255.378906 225.660156 256.671875 224.363281 258.253906 224.363281 C 259.835938 224.363281 261.128906 225.660156 261.128906 227.242188 L 261.128906 245.378906 L 279.050781 245.378906 L 279.050781 238.472656 C 295.914062 210.757812 218.953125 199.511719 191.648438 199.53125 C 164.339844 199.515625 87.378906 210.761719 104.242188 238.472656 L 104.242188 245.628906 L 122.164062 245.628906 L 122.164062 227.238281 C 122.164062 225.65625 123.457031 224.359375 125.039062 224.359375 C 126.621094 224.359375 127.914062 225.65625 127.914062 227.238281 L 127.914062 243.960938 L 138.816406 239.710938 L 138.816406 222.382812 C 138.816406 220.800781 140.109375 219.503906 141.691406 219.503906 C 143.273438 219.503906 144.566406 220.800781 144.566406 222.382812 L 144.566406 237.46875 L 155.46875 233.222656 L 155.46875 217.539062 C 155.46875 215.957031 156.761719 214.660156 158.34375 214.660156 C 159.925781 214.660156 161.21875 215.957031 161.21875 217.539062 L 161.21875 230.980469 L 172.117188 226.734375 L 172.117188 212.691406 C 172.117188 211.109375 173.414062 209.8125 174.996094 209.8125 C 176.574219 209.8125 177.871094 211.109375 177.871094 212.691406 L 177.871094 224.496094 L 188.769531 220.242188 L 188.769531 207.839844 C 188.769531 206.257812 190.066406 204.960938 191.648438 204.960938 C 193.226562 204.960938 194.523438 206.257812 194.523438 207.839844 Z M 194.523438 220.65625 " fill-opacity="1" fill-rule="evenodd"/><g clip-path="url(#68dffd3eaa)"><path fill="#f6f6f6" d="M 153.203125 82.058594 C 152.78125 78.367188 152.496094 74.613281 151.5 71.011719 C 151.011719 69.132812 150.394531 67.277344 149.839844 65.421875 C 148.792969 62.632812 147.503906 59.957031 145.96875 57.402344 C 145.039062 55.5 143.515625 54.019531 142.164062 52.40625 C 141.589844 51.632812 140.902344 50.949219 140.261719 50.21875 L 139.554688 50.21875 C 139.132812 52.539062 139 54.925781 138.558594 57.246094 C 138.027344 60.097656 137.742188 62.992188 136.945312 65.773438 C 135.605469 71.753906 133.828125 77.601562 131.613281 83.316406 C 131.304688 84.640625 130.460938 85.769531 130.132812 87.09375 C 129.378906 88.949219 128.515625 90.761719 127.699219 92.597656 C 126.414062 94.847656 125.265625 97.167969 124.003906 99.445312 C 123.050781 100.816406 122.277344 102.316406 121.28125 103.664062 C 120.089844 105.785156 118.515625 107.664062 117.210938 109.71875 C 116.019531 111.265625 115.023438 112.964844 113.804688 114.511719 C 111.859375 117.78125 110 121.140625 108.871094 124.765625 C 107.746094 128.386719 107.257812 132.296875 108.097656 136.03125 C 108.453125 137.335938 108.71875 138.660156 109.070312 139.941406 L 107.746094 138.902344 L 107.433594 139.125 C 106.835938 138.417969 106.285156 137.644531 105.578125 137.027344 C 105.894531 137.160156 106.21875 137.28125 106.550781 137.378906 C 105.597656 136.296875 104.980469 134.992188 104.25 133.757812 C 103.785156 133.050781 103.695312 132.210938 103.5625 131.390625 C 103.277344 133.226562 102.414062 134.859375 101.90625 136.628906 C 101.394531 138.394531 100.601562 140.515625 100.023438 142.503906 C 99.207031 145.023438 99.007812 147.675781 98.519531 150.261719 C 98.144531 153.417969 98.144531 156.601562 98.121094 159.78125 C 98.167969 161.617188 98.078125 163.472656 98.277344 165.304688 C 98.476562 168.839844 99.050781 172.332031 99.648438 175.820312 C 100.15625 178.273438 100.84375 180.683594 101.261719 183.15625 C 102.058594 186.558594 102.964844 189.941406 103.695312 193.363281 C 104.425781 196.125 105.15625 198.910156 105.621094 201.738281 C 106.285156 198.378906 106.816406 195 107.589844 191.683594 C 108.097656 187.820312 109.160156 184.0625 109.757812 180.21875 C 109.914062 179.355469 110.222656 178.539062 110.445312 177.699219 C 110.773438 176.460938 110.863281 175.160156 111.21875 173.921875 C 111.726562 170.917969 112.675781 168 113.320312 165.019531 C 114.050781 162.632812 114.578125 160.203125 115.222656 157.792969 C 115.863281 155.386719 116.394531 153.441406 117.167969 151.320312 C 118.074219 148.558594 118.761719 145.707031 119.800781 142.992188 C 120.242188 142.152344 120.308594 141.15625 120.75 140.316406 C 121.195312 139.476562 121.28125 138.640625 121.636719 137.84375 C 122.167969 136.628906 122.476562 135.324219 123.050781 134.152344 C 123.714844 131.832031 124.84375 129.691406 125.617188 127.414062 C 126.390625 125.140625 127.476562 122.886719 128.582031 120.722656 C 130.859375 115.816406 133.074219 110.890625 135.640625 106.140625 C 136.171875 104.8125 137.011719 103.644531 137.5625 102.339844 C 138.203125 100.636719 138.980469 98.957031 139.644531 97.257812 C 140.304688 95.554688 140.703125 94.386719 141.101562 92.882812 C 140.902344 94.496094 139.976562 95.886719 139.730469 97.5 C 139.664062 98.1875 139.332031 98.828125 139.132812 99.488281 C 138.425781 101.875 137.652344 104.261719 136.898438 106.648438 C 135.441406 110.515625 134.203125 114.445312 132.761719 118.3125 C 131.082031 123.417969 129.023438 128.386719 127.433594 133.511719 C 126.480469 135.789062 125.949219 138.21875 125.109375 140.539062 C 124.488281 142.0625 124.160156 143.699219 123.582031 145.246094 C 123.007812 146.792969 122.898438 147.941406 122.324219 149.199219 C 120.773438 154.148438 119.402344 159.164062 118.007812 164.179688 C 117.433594 166.542969 116.726562 168.863281 116.21875 171.25 C 116.0625 172.042969 115.929688 172.863281 115.707031 173.636719 L 115.421875 172.972656 C 115.457031 173.722656 115.441406 174.476562 115.375 175.226562 L 115 175.625 C 115.023438 177.058594 114.382812 178.386719 114.160156 179.777344 C 113.9375 181.167969 113.628906 182.25 113.386719 183.488281 C 113.222656 183.886719 113.113281 184.300781 113.054688 184.726562 C 112.867188 186.371094 112.582031 188 112.191406 189.609375 C 111.859375 191.730469 111.394531 193.851562 111.019531 195.972656 C 110.640625 197.761719 110.488281 199.617188 109.667969 201.273438 C 110.730469 199.394531 111.726562 197.453125 112.921875 195.640625 C 114.117188 193.828125 115.15625 192.324219 116.128906 190.582031 C 116.703125 189.628906 117.167969 188.59375 117.855469 187.6875 C 118.539062 186.78125 119.246094 185.453125 120.066406 184.394531 C 120.839844 182.957031 121.792969 181.65625 122.542969 180.21875 C 123.183594 179.445312 123.539062 178.496094 124.203125 177.746094 C 124.910156 176.351562 125.707031 174.984375 126.480469 173.636719 C 127.253906 172.285156 127.898438 171.292969 128.449219 170.054688 C 129.003906 168.820312 130.085938 167.46875 130.683594 166.035156 C 131.082031 165.039062 131.8125 164.199219 132.101562 163.164062 C 131.371094 163.359375 130.660156 163.605469 129.886719 163.648438 C 129.113281 163.691406 127.964844 164.3125 127.011719 163.871094 C 126.546875 163.78125 126.4375 163.339844 126.347656 162.941406 L 127.234375 162.785156 L 127.234375 162.675781 L 126.390625 162.675781 C 126.625 162.40625 126.875 162.15625 127.144531 161.925781 C 127.1875 161.636719 127.210938 161.328125 127.253906 161.042969 L 127.519531 161.816406 C 128.558594 161.261719 129.734375 160.929688 130.75 160.3125 C 132.519531 159.339844 134.246094 158.234375 135.726562 156.867188 C 137.984375 154.832031 139.730469 152.316406 141.546875 149.882812 C 142.140625 148.914062 142.605469 147.894531 143.226562 146.921875 C 144.109375 144.933594 145.285156 143.058594 145.96875 140.957031 C 146.675781 139.390625 147.007812 137.710938 147.652344 136.121094 C 148.292969 134.53125 148.757812 132.628906 149.066406 130.796875 C 149.488281 128.277344 150.214844 125.800781 150.503906 123.261719 C 150.792969 120.722656 151.277344 118.402344 151.523438 115.949219 C 151.566406 115 151.789062 114.070312 151.921875 113.121094 C 152.039062 111.847656 152.066406 110.574219 152.007812 109.296875 C 151.300781 110.117188 150.992188 111.175781 150.347656 112.039062 C 149.707031 112.898438 148.957031 113.496094 148.09375 114.003906 C 147.230469 114.511719 146.34375 114.511719 145.484375 114.800781 C 148.136719 111.707031 149.90625 107.972656 151.433594 104.238281 C 152.230469 101.765625 152.472656 99.15625 153.027344 96.617188 C 153.203125 94.671875 153.425781 92.726562 153.359375 90.785156 C 153.644531 87.933594 153.335938 84.996094 153.203125 82.058594 Z M 153.203125 82.058594 " fill-opacity="1" fill-rule="nonzero"/></g><g clip-path="url(#77a98d4869)"><path fill="#f6f6f6" d="M 135.0625 246.191406 C 134.710938 244.289062 135.0625 242.34375 134.753906 240.445312 C 134.644531 236.933594 134.355469 233.308594 132.875 230.0625 C 132.429688 228.734375 131.546875 227.632812 130.574219 226.679688 C 130.125 226.285156 129.617188 225.988281 129.046875 225.796875 C 128.183594 225.554688 127.433594 225.089844 126.613281 224.78125 C 125.796875 224.472656 124.820312 224.515625 123.9375 224.273438 C 123.632812 224.253906 123.335938 224.1875 123.050781 224.074219 L 121.660156 223.941406 C 121.039062 223.5 120.242188 223.542969 119.511719 223.5 C 119.160156 223.410156 118.78125 223.34375 118.429688 223.300781 C 118.097656 222.308594 117.457031 221.421875 117.324219 220.382812 C 117.191406 219.347656 117.390625 217.644531 118.496094 216.894531 C 119.601562 216.144531 121.546875 216.273438 122.585938 215.082031 C 123.628906 213.890625 123.605469 212.9375 123.828125 211.789062 C 123.804688 211.039062 123.960938 210.242188 123.648438 209.558594 C 123.425781 208.953125 123.167969 208.367188 122.875 207.792969 C 122.386719 207.261719 121.703125 207.019531 121.015625 206.929688 C 120.210938 206.664062 119.386719 206.53125 118.539062 206.53125 C 117.941406 206.222656 117.257812 206.421875 116.636719 206.3125 C 115.265625 206.046875 113.828125 206.246094 112.457031 205.980469 C 111.085938 205.714844 110.179688 206 109.027344 205.933594 C 108.34375 208.253906 108.164062 210.6875 107.65625 213.050781 C 106.570312 213.203125 106.375 211.902344 106.242188 211.128906 C 106.042969 209.402344 105.796875 207.679688 105.644531 205.933594 C 103.03125 205.914062 100.46875 206.421875 97.835938 206.398438 C 97.148438 206.730469 96.351562 206.554688 95.601562 206.621094 C 94.496094 207.105469 93.144531 207.527344 92.59375 208.695312 C 92.078125 209.839844 92 211.007812 92.347656 212.210938 C 92.414062 212.609375 92.460938 212.984375 92.480469 213.382812 C 92.503906 213.777344 92.921875 214.242188 93.277344 214.574219 C 93.632812 214.90625 94.25 215.257812 94.515625 215.832031 C 95.933594 216.1875 97.414062 216.496094 98.652344 217.335938 C 99.359375 218.066406 99.804688 219.167969 99.582031 220.207031 C 99.027344 222.351562 96.839844 223.609375 94.78125 224.007812 C 93.34375 224.03125 91.949219 224.382812 90.535156 224.582031 C 89.117188 224.78125 87.636719 225.179688 86.441406 226.0625 C 85.3125 226.546875 84.472656 227.453125 83.765625 228.449219 C 82.152344 230.65625 81.886719 233.484375 81.554688 236.09375 C 81.160156 238.507812 80.929688 240.9375 80.867188 243.382812 C 80.558594 245.285156 80.800781 247.226562 80.515625 249.148438 C 80.515625 256.152344 80.492188 263.136719 80.515625 270.140625 C 80.824219 270.933594 80.582031 271.816406 80.957031 272.613281 C 81.332031 273.410156 81.996094 273.894531 82.75 274.160156 C 86.972656 274.160156 91.175781 274.183594 95.402344 274.136719 C 96.417969 273.960938 97.457031 274.027344 98.5 274.027344 C 108.671875 274.027344 118.847656 273.9375 129.023438 273.9375 C 130.066406 273.917969 131.148438 274.070312 132.167969 273.71875 C 132.613281 273.410156 132.984375 273.027344 133.273438 272.570312 C 133.671875 271.882812 134.289062 271.332031 134.53125 270.582031 C 134.777344 269.828125 134.53125 269.652344 134.710938 269.210938 C 135.042969 268.4375 134.777344 267.578125 134.953125 266.78125 C 135.027344 266.5 135.066406 266.210938 135.0625 265.917969 C 135.085938 259.292969 135.109375 252.75 135.0625 246.191406 Z M 135.0625 246.191406 " fill-opacity="1" fill-rule="nonzero"/></g><g fill="#f6f6f6" fill-opacity="1"><g transform="translate(82.606065, 327.01452)"><g><path d="M 29.203125 -29.5 L 18.6875 -29.5 L 18.6875 0 L 11.546875 0 L 11.546875 -29.5 L 1.046875 -29.5 L 1.046875 -35.5 L 29.203125 -35.5 Z M 29.203125 -29.5 "/></g></g></g><g fill="#f6f6f6" fill-opacity="1"><g transform="translate(112.891775, 327.01452)"><g><path d="M 13.390625 -26.28125 C 17.484375 -26.28125 20.535156 -24.945312 22.546875 -22.28125 C 24.566406 -19.625 25.578125 -15.832031 25.578125 -10.90625 L 8.53125 -10.90625 C 8.59375 -9.1875 9.09375 -7.707031 10.03125 -6.46875 C 10.976562 -5.226562 12.34375 -4.609375 14.125 -4.609375 C 15.25 -4.609375 16.164062 -4.894531 16.875 -5.46875 C 17.59375 -6.050781 18.113281 -6.957031 18.4375 -8.1875 L 25.234375 -7.046875 C 24.378906 -4.523438 22.988281 -2.617188 21.0625 -1.328125 C 19.144531 -0.046875 16.800781 0.59375 14.03125 0.59375 C 9.894531 0.59375 6.769531 -0.644531 4.65625 -3.125 C 3.664062 -4.28125 2.90625 -5.734375 2.375 -7.484375 C 1.851562 -9.234375 1.59375 -10.96875 1.59375 -12.6875 C 1.59375 -15.039062 2.007812 -17.25 2.84375 -19.3125 C 3.6875 -21.375 4.992188 -23.050781 6.765625 -24.34375 C 8.535156 -25.632812 10.742188 -26.28125 13.390625 -26.28125 Z M 8.671875 -15.078125 L 18.84375 -15.078125 C 18.8125 -17.148438 18.289062 -18.664062 17.28125 -19.625 C 16.269531 -20.59375 15.085938 -21.078125 13.734375 -21.078125 C 12.148438 -21.078125 10.910156 -20.503906 10.015625 -19.359375 C 9.117188 -18.222656 8.671875 -16.796875 8.671875 -15.078125 Z M 8.671875 -15.078125 "/></g></g></g><g fill="#f6f6f6" fill-opacity="1"><g transform="translate(140.45127, 327.01452)"><g><path d="M 10.359375 0 L 3.5625 0 L 3.5625 -35.5 L 10.359375 -35.5 Z M 10.359375 0 "/></g></g></g><g fill="#f6f6f6" fill-opacity="1"><g transform="translate(154.231022, 327.01452)"><g><path d="M 10.359375 0 L 3.5625 0 L 3.5625 -35.5 L 10.359375 -35.5 Z M 10.359375 0 "/></g></g></g><g fill="#3537ef" fill-opacity="1"><g transform="translate(168.010423, 327.01452)"><g><path d="M 35.640625 0 L 27.8125 0 L 24.734375 -8.03125 L 10.5625 -8.03125 L 7.640625 0 L 0 0 L 13.828125 -35.5 L 21.421875 -35.5 Z M 12.734375 -14.03125 L 22.453125 -14.03125 L 17.546875 -27.21875 Z M 12.734375 -14.03125 "/></g></g></g><g fill="#f60e0e" fill-opacity="1"><g transform="translate(203.792788, 327.01452)"><g><path d="M 27.421875 -34.359375 C 28.898438 -33.734375 30.132812 -32.625 31.125 -31.03125 C 32.125 -29.445312 32.625 -27.613281 32.625 -25.53125 C 32.625 -22.882812 31.804688 -20.660156 30.171875 -18.859375 C 28.535156 -17.054688 26.226562 -15.972656 23.25 -15.609375 C 24.539062 -14.722656 25.523438 -13.988281 26.203125 -13.40625 C 26.878906 -12.832031 27.617188 -12.023438 28.421875 -10.984375 C 29.234375 -9.941406 30.238281 -8.460938 31.4375 -6.546875 L 35.5 0 L 26.921875 0 L 21.171875 -8.625 C 19.878906 -10.539062 18.878906 -11.90625 18.171875 -12.71875 C 17.460938 -13.53125 16.707031 -14.082031 15.90625 -14.375 C 15.113281 -14.675781 13.992188 -14.828125 12.546875 -14.828125 L 10.765625 -14.828125 L 10.765625 0 L 3.625 0 L 3.625 -35.5 L 19.140625 -35.5 C 20.828125 -35.5 22.351562 -35.421875 23.71875 -35.265625 C 25.09375 -35.117188 26.328125 -34.816406 27.421875 -34.359375 Z M 22.359375 -20.875 C 23.222656 -21.132812 23.914062 -21.628906 24.4375 -22.359375 C 24.96875 -23.085938 25.234375 -24 25.234375 -25.09375 C 25.234375 -26.96875 24.425781 -28.269531 22.8125 -29 C 22.375 -29.195312 21.84375 -29.328125 21.21875 -29.390625 C 20.59375 -29.460938 19.519531 -29.5 18 -29.5 L 10.765625 -29.5 L 10.765625 -20.46875 L 17.0625 -20.46875 C 19.632812 -20.46875 21.398438 -20.601562 22.359375 -20.875 Z M 22.359375 -20.875 "/></g></g></g><g fill="#f60e0e" fill-opacity="1"><g transform="translate(239.580478, 327.01452)"><g><path d="M 13.390625 -26.28125 C 17.484375 -26.28125 20.535156 -24.945312 22.546875 -22.28125 C 24.566406 -19.625 25.578125 -15.832031 25.578125 -10.90625 L 8.53125 -10.90625 C 8.59375 -9.1875 9.09375 -7.707031 10.03125 -6.46875 C 10.976562 -5.226562 12.34375 -4.609375 14.125 -4.609375 C 15.25 -4.609375 16.164062 -4.894531 16.875 -5.46875 C 17.59375 -6.050781 18.113281 -6.957031 18.4375 -8.1875 L 25.234375 -7.046875 C 24.378906 -4.523438 22.988281 -2.617188 21.0625 -1.328125 C 19.144531 -0.046875 16.800781 0.59375 14.03125 0.59375 C 9.894531 0.59375 6.769531 -0.644531 4.65625 -3.125 C 3.664062 -4.28125 2.90625 -5.734375 2.375 -7.484375 C 1.851562 -9.234375 1.59375 -10.96875 1.59375 -12.6875 C 1.59375 -15.039062 2.007812 -17.25 2.84375 -19.3125 C 3.6875 -21.375 4.992188 -23.050781 6.765625 -24.34375 C 8.535156 -25.632812 10.742188 -26.28125 13.390625 -26.28125 Z M 8.671875 -15.078125 L 18.84375 -15.078125 C 18.8125 -17.148438 18.289062 -18.664062 17.28125 -19.625 C 16.269531 -20.59375 15.085938 -21.078125 13.734375 -21.078125 C 12.148438 -21.078125 10.910156 -20.503906 10.015625 -19.359375 C 9.117188 -18.222656 8.671875 -16.796875 8.671875 -15.078125 Z M 8.671875 -15.078125 "/></g></g></g><g fill="#f60e0e" fill-opacity="1"><g transform="translate(267.139972, 327.01452)"><g><path d="M 17.703125 -26.28125 C 19.585938 -26.28125 21.347656 -25.765625 22.984375 -24.734375 C 24.617188 -23.710938 25.9375 -22.175781 26.9375 -20.125 C 27.945312 -18.082031 28.453125 -15.570312 28.453125 -12.59375 C 28.453125 -9.71875 27.960938 -7.285156 26.984375 -5.296875 C 26.015625 -3.316406 24.710938 -1.835938 23.078125 -0.859375 C 21.441406 0.109375 19.632812 0.59375 17.65625 0.59375 C 14.738281 0.59375 12.238281 -0.59375 10.15625 -2.96875 L 10.15625 9.765625 L 3.375 9.765625 L 3.375 -25.6875 L 9.71875 -25.6875 L 9.71875 -21.90625 L 9.8125 -21.90625 C 10.601562 -23.101562 11.703125 -24.128906 13.109375 -24.984375 C 14.515625 -25.847656 16.046875 -26.28125 17.703125 -26.28125 Z M 10.65625 -16.65625 C 10.289062 -15.601562 10.109375 -14.148438 10.109375 -12.296875 C 10.109375 -9.753906 10.644531 -7.835938 11.71875 -6.546875 C 12.800781 -5.253906 14.164062 -4.609375 15.8125 -4.609375 C 17.832031 -4.609375 19.28125 -5.398438 20.15625 -6.984375 C 21.03125 -8.578125 21.46875 -10.546875 21.46875 -12.890625 C 21.46875 -15.628906 20.945312 -17.644531 19.90625 -18.9375 C 18.863281 -20.226562 17.566406 -20.875 16.015625 -20.875 C 14.859375 -20.875 13.789062 -20.507812 12.8125 -19.78125 C 11.84375 -19.050781 11.125 -18.007812 10.65625 -16.65625 Z M 10.65625 -16.65625 "/></g></g></g></svg>